# xmcd
#
# Track frame offsets: 
#        150
#        31925
#        49425
#        64575
#        90150
#        116412
#        142250
#        173125
#        201887
#        230950
#
# Disc length: 3369 seconds
#
# Revision: 1
# Processed by: cddbd v1.5.2PL0 Copyright (c) Steve Scherf et al.
# Submitted via: ExactAudioCopyFreeDBPlugin 1.0
#
DISCID=8c0d270a
DTITLE=REBECCA - 12inch REMIX
DYEAR=1994
DGENRE=JPop
TTITLE0=Bottom LIne (EXTEND DANCE REMIX)
TTITLE1=Love Passion (DANCE REMIX)
TTITLE2=76th Star (DANCE REMIX)
TTITLE3=Motor Drive (EXTEND DANCE REMIX)
TTITLE4=Raspberry Dream (DUB MIX)
TTITLE5=Cheap Hippies (EXTEND DANCE REMIX)
TTITLE6=When a Woman Loves a Man (EXTEND DANCE REMIX)
TTITLE7=Super Girl (SUPER REMIX)
TTITLE8=Blond Saurus (WILD REMIX)
TTITLE9=Super Girl
EXTD=
EXTT0=
EXTT1=
EXTT2=
EXTT3=
EXTT4=
EXTT5=
EXTT6=
EXTT7=
EXTT8=
EXTT9=
PLAYORDER=
